<?xml version="1.0"?>
<svg width="48" height="48" xmlns="http://www.w3.org/2000/svg" xmlns:svg="http://www.w3.org/2000/svg">
 <g class="layer">
  <title>Layer 1</title>
  <rect fill="#0149c1" height="48" id="svg_1" width="48"/>
  <path d="m26,24l16,0" fill="#0149c1" id="svg_2" stroke="#ffffff" stroke-linecap="round" stroke-linejoin="round" stroke-width="4" transform="matrix(1 0 0 1 0 0)"/>
  <path d="m26,38l16,0" fill="#0149c1" id="svg_3" stroke="#ffffff" stroke-linecap="round" stroke-linejoin="round" stroke-width="4" transform="matrix(1 0 0 1 0 0)"/>
  <path d="m26,10l16,0" fill="#0149c1" id="svg_4" stroke="#ffffff" stroke-linecap="round" stroke-linejoin="round" stroke-width="4" transform="matrix(1 0 0 1 0 0)"/>
  <path d="m18,24l-12,0c0,0 1.66,0 4,0m8,14c-6,-2 -2,-14 -8,-14m8,-14c-6,2 -2,14 -8,14" fill="#0149c1" id="svg_5" stroke="#ffffff" stroke-linecap="round" stroke-linejoin="round" stroke-width="4" transform="matrix(1 0 0 1 0 0)"/>
 </g>
</svg>